<?xml version="1.0" encoding="utf-8"?>
<!-- Generator: Adobe Illustrator 27.5.0, SVG Export Plug-In . SVG Version: 6.00 Build 0)  -->
<svg version="1.1" xmlns="http://www.w3.org/2000/svg" xmlns:xlink="http://www.w3.org/1999/xlink" x="0px" y="0px"
	 viewBox="0 0 500 500" style="enable-background:new 0 0 500 500;" xml:space="preserve">
<g id="Background_Complete">
	<g>
		<rect y="382.398" style="fill:#EBEBEB;" width="500" height="0.25"/>
		<rect x="416.779" y="398.494" style="fill:#EBEBEB;" width="33.122" height="0.25"/>
		<rect x="322.527" y="401.208" style="fill:#EBEBEB;" width="8.693" height="0.25"/>
		<rect x="396.586" y="389.208" style="fill:#EBEBEB;" width="19.192" height="0.25"/>
		<rect x="52.459" y="390.888" style="fill:#EBEBEB;" width="43.193" height="0.25"/>
		<rect x="104.556" y="390.888" style="fill:#EBEBEB;" width="6.333" height="0.25"/>
		<rect x="131.471" y="395.111" style="fill:#EBEBEB;" width="93.676" height="0.25"/>
		<path style="fill:#EBEBEB;" d="M237.014,337.8H43.915c-3.147,0-5.708-2.561-5.708-5.708V60.66c0-3.147,2.561-5.708,5.708-5.708
			h193.099c3.146,0,5.707,2.561,5.707,5.708v271.432C242.721,335.239,240.16,337.8,237.014,337.8z M43.915,55.203
			c-3.01,0-5.458,2.448-5.458,5.458v271.432c0,3.01,2.448,5.458,5.458,5.458h193.099c3.009,0,5.457-2.448,5.457-5.458V60.66
			c0-3.009-2.448-5.458-5.457-5.458H43.915z"/>
		<path style="fill:#EBEBEB;" d="M453.31,337.8H260.212c-3.147,0-5.707-2.561-5.707-5.708V60.66c0-3.147,2.561-5.708,5.707-5.708
			H453.31c3.148,0,5.708,2.561,5.708,5.708v271.432C459.019,335.239,456.458,337.8,453.31,337.8z M260.212,55.203
			c-3.009,0-5.457,2.448-5.457,5.458v271.432c0,3.01,2.448,5.458,5.457,5.458H453.31c3.01,0,5.458-2.448,5.458-5.458V60.66
			c0-3.009-2.448-5.458-5.458-5.458H260.212z"/>
	</g>
	<g>
		<g>
			<rect x="279.746" y="74.65" style="fill:#E6E6E6;" width="164.446" height="145.921"/>
			<rect x="283.864" y="78.65" style="fill:#F0F0F0;" width="156" height="138"/>
			<polygon style="fill:#FFFFFF;" points="320.475,78.65 283.864,216.35 283.864,151.645 303.194,78.65 			"/>
			<polygon style="fill:#FFFFFF;" points="333.442,78.65 296.509,216.65 290.615,216.65 327.548,78.65 			"/>
			<polygon style="fill:#FFFFFF;" points="439.864,165.729 439.864,187.781 432.391,216.65 426.496,216.65 			"/>
			<rect x="335.646" y="76.169" style="fill:#E6E6E6;" width="2.628" height="143.563"/>
			<rect x="386.573" y="76.169" style="fill:#E6E6E6;" width="2.628" height="143.563"/>
		</g>
		<g>
			<rect x="52.459" y="301.05" style="fill:#F5F5F5;" width="90.673" height="81.314"/>
			<rect x="52.459" y="301.05" style="fill:#EBEBEB;" width="31.556" height="81.314"/>
		</g>
		<g>
			<rect x="70.504" y="221.412" style="fill:#EBEBEB;" width="90.673" height="81.314"/>
			<rect x="70.504" y="221.412" style="fill:#E0E0E0;" width="31.556" height="81.314"/>
		</g>
		<g>
			<rect x="52.459" y="140.343" style="fill:#F5F5F5;" width="90.673" height="81.314"/>
			<rect x="52.459" y="140.343" style="fill:#EBEBEB;" width="31.556" height="81.314"/>
		</g>
		<g>
			<rect x="151.128" y="301.121" style="fill:#EBEBEB;" width="90.673" height="81.314"/>
			<rect x="151.128" y="301.121" style="fill:#E0E0E0;" width="31.556" height="81.314"/>
		</g>
		<g>
			<rect x="161.173" y="251.868" style="fill:#F5F5F5;" width="90.673" height="50.93"/>
			<rect x="161.173" y="251.868" style="fill:#E6E6E6;" width="31.556" height="50.93"/>
		</g>
		<g>
			<rect x="154.128" y="171.414" style="fill:#EBEBEB;" width="58.582" height="81.314"/>
			<rect x="154.128" y="171.414" style="fill:#E0E0E0;" width="20.388" height="81.314"/>
		</g>
		<g>
			
				<rect x="346.51" y="301.192" transform="matrix(-1 -1.224647e-16 1.224647e-16 -1 783.6935 683.6978)" style="fill:#F5F5F5;" width="90.673" height="81.314"/>
			
				<rect x="405.627" y="301.192" transform="matrix(-1 -1.224647e-16 1.224647e-16 -1 842.8101 683.6978)" style="fill:#E6E6E6;" width="31.556" height="81.314"/>
		</g>
		<g>
			
				<rect x="328.466" y="236.679" transform="matrix(-1 -1.224647e-16 1.224647e-16 -1 747.6043 539.5468)" style="fill:#EBEBEB;" width="90.673" height="66.19"/>
			
				<rect x="387.582" y="236.679" transform="matrix(-1 -1.224647e-16 1.224647e-16 -1 806.7209 539.5468)" style="fill:#E0E0E0;" width="31.556" height="66.19"/>
		</g>
		<g>
			
				<rect x="349.747" y="204.28" transform="matrix(-1 -1.224647e-16 1.224647e-16 -1 786.9307 440.9563)" style="fill:#F5F5F5;" width="87.436" height="32.396"/>
			
				<rect x="406.754" y="204.28" transform="matrix(-1 -1.224647e-16 1.224647e-16 -1 843.9369 440.9563)" style="fill:#E6E6E6;" width="30.43" height="32.396"/>
		</g>
	</g>
</g>
<g id="Background_Simple" style="display:none;">
	<g style="display:inline;">
		<path style="fill:#407BFF;" d="M334.637,231.411c2.218,0.803,4.438,1.587,6.664,2.331c18.17,6.075,39.264,9.245,55.624-0.726
			c24.653-15.026,26.612-49.698,16.846-73.924c-10.85-26.914-32.637-48.728-57.843-62.572
			c-41.923-23.027-93.976-25.569-138.868-9.063c-38.951,14.321-72.577,43.489-95.611,77.66
			c-31.282,46.408-42.272,111.458-7.92,159.256c1.283,1.785,2.624,3.528,4.023,5.223c9.092,11.014,21.806,20.87,36.156,24.761
			c34.205,9.273,57.55-20.111,62.648-50.78c2.666-16.039,3.58-32.706,10.353-47.488c10.321-22.527,34.656-37.869,59.431-37.47
			C302.949,218.891,318.742,225.654,334.637,231.411z"/>
		<path style="opacity:0.9;fill:#FFFFFF;" d="M334.637,231.411c2.218,0.803,4.438,1.587,6.664,2.331
			c18.17,6.075,39.264,9.245,55.624-0.726c24.653-15.026,26.612-49.698,16.846-73.924c-10.85-26.914-32.637-48.728-57.843-62.572
			c-41.923-23.027-93.976-25.569-138.868-9.063c-38.951,14.321-72.577,43.489-95.611,77.66
			c-31.282,46.408-42.272,111.458-7.92,159.256c1.283,1.785,2.624,3.528,4.023,5.223c9.092,11.014,21.806,20.87,36.156,24.761
			c34.205,9.273,57.55-20.111,62.648-50.78c2.666-16.039,3.58-32.706,10.353-47.488c10.321-22.527,34.656-37.869,59.431-37.47
			C302.949,218.891,318.742,225.654,334.637,231.411z"/>
	</g>
</g>
<g id="Shadow_1_">
	<ellipse id="_x3C_Path_x3E__359_" style="fill:#F5F5F5;" cx="250" cy="416.238" rx="193.889" ry="11.323"/>
</g>
<g id="Bubble">
	<g>
		<path style="fill:#407BFF;" d="M357.861,144.256h-27.835c-2.5,0-4.527-2.027-4.527-4.527v-25.246c0-2.5,2.027-4.527,4.527-4.527
			h27.835c2.5,0,4.527,2.027,4.527,4.527v25.246C362.388,142.229,360.361,144.256,357.861,144.256z"/>
		<path style="fill:#407BFF;" d="M340.342,139.894c0,0,2.33,11.264,18.206,17.515c0,0-9.709-6.204-9.103-17.515H340.342z"/>
		
			<polyline style="fill:none;stroke:#FFFFFF;stroke-width:3;stroke-linecap:round;stroke-linejoin:round;stroke-miterlimit:10;" points="
			335.962,126.13 341.227,133.452 351.926,120.759 		"/>
	</g>
</g>
<g id="Character_2">
	<g>
		<path style="fill:#263238;" d="M392.529,149.418c4.893,3.515,9.307,9.514,6.01,26.317c-3.297,16.804-4.144,20.795-4.144,20.795
			l-31.988-3.596c0,0-1.5-14.87,1.055-28.861C366.762,146.003,378.211,139.132,392.529,149.418z"/>
		<path style="fill:#EEC1BB;" d="M360.496,242.247c0,0-10.838,57.765-13.73,81.481c-3.778,30.939-19.227,76.202-19.227,76.202
			l6.177,1.597c0,0,21.781-38.462,26.027-73.071c17.301-35.369,18.698-78.923,18.698-78.923L360.496,242.247z"/>
		<path style="fill:#263238;" d="M316.037,413.932c1-0.46,2.075-0.733,3.174-0.806l0,0c0,0,3.798-2.236,7.562-10.92l4.233-0.025
			c1.466,0.017,2.764,0.947,3.252,2.329c0.07,0.188,0.11,0.386,0.12,0.586c-0.043,1.023-0.151,2.042-0.325,3.051
			c-0.381,3.166-2.475,9.959-2.475,9.959l-0.717-0.183l1.304-6.316c0.434-2.146-1.821-0.073-2.867,2.091
			c-1.046,2.164-2.65,4.342-7.325,3.273C316.525,415.696,314.329,414.912,316.037,413.932z"/>
		<path style="fill:#263238;" d="M334.377,404.618c0.8-2.053,1.82-5.716,1.82-5.716l-9.068-1.267c0,0,0.001,4.461-1.68,7.384
			C330.188,404.984,334.377,404.618,334.377,404.618z"/>
		<path style="fill:#EEC1BB;" d="M371.751,241.326c0,0,1.345,58.757,3.421,82.559c2.703,31.052-3.05,78.531-3.05,78.531l6.374,0.284
			c0,0,13.354-42.136,10.35-76.875c9.611-38.182,1.969-81.083,1.969-81.083L371.751,241.326z"/>
		<path style="fill:#263238;" d="M362.202,415.865c0.944-0.565,1.984-0.953,3.068-1.145l0,0c0,0,3.534-2.633,6.338-11.673
			l4.206-0.482c1.459-0.142,2.851,0.643,3.485,1.964c0.089,0.18,0.151,0.372,0.182,0.57c0.068,1.021,0.07,2.046,0.006,3.068
			c-0.036,3.189-1.384,10.168-1.384,10.168l-0.733-0.104l0.614-6.42c0.199-2.181-1.819,0.124-2.624,2.388
			c-0.806,2.264-2.165,4.603-6.929,4.046C362.878,417.567,360.61,417.024,362.202,415.865z"/>
		<path style="fill:#263238;" d="M379.429,404.624c0.574-2.127,1.191-5.88,1.191-5.88l-9.152-0.28c0,0,0.483,4.435-0.872,7.522
			C375.303,405.44,379.429,404.624,379.429,404.624z"/>
		<g>
			<path style="fill:#263238;" d="M358.19,232.607l-11.894,82.224c0,0,38.727,6.008,54.228,2.493c0,0,3.802-47.475-12.375-81.995
				L358.19,232.607z"/>
		</g>
		<path style="fill:#EEC1BB;" d="M322.398,203.54l-10.345-10.221c0,0-0.358-2.738-1.358-3.501c-1.001-0.763-8.098-3.337-8.965-2.765
			c-0.867,0.572-2.075,6.308-0.861,7.356c1.214,1.049,7.668,2.393,8.329,2.28l11.191,13.285L322.398,203.54z"/>
		<g>
			<path style="fill:#407BFF;" d="M359.439,184.915c-4.462,2.366-20.295,24.501-22.628,25.6c-2.333,1.099-20.162-13.36-20.162-13.36
				l-3.005,5.126c0,0,14.628,20.667,22.898,19.667c8.269-1,24.102-18.5,24.102-18.5L359.439,184.915z"/>
			<path style="opacity:0.1;fill:#FFFFFF;enable-background:new    ;" d="M359.439,184.915c-4.462,2.366-20.295,24.501-22.628,25.6
				c-2.333,1.099-20.162-13.36-20.162-13.36l-3.005,5.126c0,0,14.628,20.667,22.898,19.667c8.269-1,24.102-18.5,24.102-18.5
				L359.439,184.915z"/>
		</g>
		<polygon style="fill:#407BFF;" points="317.629,197.697 316.394,196.53 313.144,202.03 314.311,204.28 		"/>
		<path style="opacity:0.2;enable-background:new    ;" d="M354.284,209.91c3.7-3.53,6.36-6.46,6.36-6.46l-0.28-4.4l-1.39-4.27
			C358.974,194.78,352.734,200.53,354.284,209.91z"/>
		<g>
			<path style="fill:#407BFF;" d="M357.943,231.77c-1.25-22.017-0.691-34.119-0.123-40.17c0.625-6.449,1.619-6.686,1.619-6.686
				s6.988-0.682,13.068-0.634c4.706,0.161,9.403,0.653,14.034,1.477c4.394,0.729,8.721,1.78,12.973,3.134
				c-0.71,2.027-1.354,3.949-1.951,5.758c-0.795,2.386-1.506,4.602-2.149,6.666c-1.203,3.864-2.14,7.206-2.888,10.199
				c-2.339,9.261-2.831,15.189-3.324,22.954c0,0,7.692,20.099,9.192,34.849l-25.5,2.75l-3.5-14.75l-3.5,15.25l-14.25-5
				L357.943,231.77z"/>
			<path style="opacity:0.1;fill:#FFFFFF;enable-background:new    ;" d="M357.943,231.77c-1.25-22.017-0.691-34.119-0.123-40.17
				c0.625-6.449,1.619-6.686,1.619-6.686s6.988-0.682,13.068-0.634c4.706,0.161,9.403,0.653,14.034,1.477
				c4.394,0.729,8.721,1.78,12.973,3.134c-0.71,2.027-1.354,3.949-1.951,5.758c-0.795,2.386-1.506,4.602-2.149,6.666
				c-1.203,3.864-2.14,7.206-2.888,10.199c-2.339,9.261-2.831,15.189-3.324,22.954c0,0,7.692,20.099,9.192,34.849l-25.5,2.75
				l-3.5-14.75l-3.5,15.25l-14.25-5L357.943,231.77z"/>
		</g>
		<path style="opacity:0.2;enable-background:new    ;" d="M391.294,216.9c0.34-1.68,0.74-3.47,1.23-5.39
			c0.31-1.22,0.65-2.5,1.03-3.86c-0.97-3.41-1.972-0.745-1.972-0.745S390.582,211.03,391.294,216.9z"/>
		<path style="fill:#EEC1BB;" d="M372.862,185.621c0.276-0.151,0.604-0.284,0.951-0.408c0.721-0.569,1.596-1.941,1.555-5.275
			c-0.015-1.086-0.118-2.372-0.362-3.904l9.272-1.731c0,0-3.161,6.239-0.523,10.873c0.907,0.404,1.448,0.974,1.35,1.729
			c-0.694,5.359-12.211,10.537-12.211,10.537S367.269,188.693,372.862,185.621z"/>
		<path style="opacity:0.2;enable-background:new    ;" d="M375.006,176.035c0.244,1.532,0.347,2.818,0.362,3.904
			c6.263,0,8.91-5.635,8.91-5.635L375.006,176.035z"/>
		<g>
			<path style="fill:#EEC1BB;" d="M380.132,150.109c-8.06-0.442-10.891,3.731-11.936,12.005c-1.306,10.339,0.591,17.84,10.79,16.175
				C392.837,176.028,393.517,150.842,380.132,150.109z"/>
			<path style="fill:#D4827D;" d="M373.43,161.949c0,0-1.232,2.044-2.528,3.214c0,0,0.63,1.134,2.075,1.028L373.43,161.949z"/>
			<g>
				<path style="fill:#263238;" d="M378.4,161.56c-0.052,0.661,0.264,1.225,0.704,1.26c0.441,0.035,0.84-0.473,0.892-1.135
					c0.052-0.661-0.263-1.225-0.704-1.26C378.851,160.391,378.452,160.899,378.4,161.56z"/>
				<path style="fill:#263238;" d="M379.473,160.472l-1.394-0.677C378.079,159.795,378.701,161.061,379.473,160.472z"/>
			</g>
			<g>
				<path style="fill:#263238;" d="M370.19,160.779c-0.052,0.661,0.264,1.225,0.704,1.26c0.441,0.034,0.84-0.474,0.892-1.135
					c0.052-0.661-0.264-1.225-0.704-1.26C370.642,159.61,370.242,160.118,370.19,160.779z"/>
				<path style="fill:#263238;" d="M371.264,159.691l-1.394-0.676C369.87,159.014,370.491,160.28,371.264,159.691z"/>
			</g>
			
				<path style="fill:none;stroke:#263238;stroke-width:0.6862;stroke-linecap:round;stroke-linejoin:round;stroke-miterlimit:10;" d="
				M378.786,155.999c0,0,2.281-0.17,3.429,1.41"/>
			
				<path style="fill:none;stroke:#263238;stroke-width:0.6862;stroke-linecap:round;stroke-linejoin:round;stroke-miterlimit:10;" d="
				M372.946,155.337c0,0-1.395-0.605-3.249,0.487"/>
			<path style="fill:#263238;" d="M388.196,164.176c0,0-3.406-6.829-2.555-11.91c0,0-15.615-7.4-17.291,8.769
				c0,0-0.772-14.481,13.101-14.043c13.851,0.438,12.704,20.705,5.217,26.353C386.669,173.345,390.301,168.445,388.196,164.176z"/>
			<path style="fill:#EEC1BB;" d="M386.787,165.805c0.125-1.295,1.584-3.418,3.983-3.022c2.483,0.409,3.392,5.602-2.888,6.495
				C386.981,169.406,386.526,168.507,386.787,165.805z"/>
			
				<path style="fill:none;stroke:#263238;stroke-width:0.6862;stroke-linecap:round;stroke-linejoin:round;stroke-miterlimit:10;" d="
				M379.269,168.068c0,0-1.875,2-4.625,1.875"/>
			
				<path style="fill:none;stroke:#263238;stroke-width:0.6862;stroke-linecap:round;stroke-linejoin:round;stroke-miterlimit:10;" d="
				M385.641,152.266c0,0-17.426-4.526-18.88,11.807"/>
		</g>
		<g>
			<path style="fill:#407BFF;" d="M370.104,189.588c0,0-1.335,13.24,0.841,25.288c0,0,5.143-18.612,12.363-24.941l-8.302,1.187
				L370.104,189.588z"/>
			<path style="opacity:0.5;fill:#FFFFFF;" d="M370.104,189.588c0,0-1.335,13.24,0.841,25.288c0,0,5.143-18.612,12.363-24.941
				l-8.302,1.187L370.104,189.588z"/>
		</g>
		<g>
			<path style="fill:#407BFF;" d="M383.426,183.703l-8.42,6.231v-6.626c0,0-6.811,2.473-6.326,9.989l5.589-2.571v2.571l1.31-2.473
				l4.422,5.044c0,0,5.413-6.307,5.976-8.209C386.541,185.757,383.426,183.703,383.426,183.703z"/>
			<path style="opacity:0.7;fill:#FFFFFF;" d="M383.426,183.703l-8.42,6.231v-6.626c0,0-6.811,2.473-6.326,9.989l5.589-2.571v2.571
				l1.31-2.473l4.422,5.044c0,0,5.413-6.307,5.976-8.209C386.541,185.757,383.426,183.703,383.426,183.703z"/>
		</g>
		<g>
			<path style="fill:#263238;" d="M392.233,242.118l-7.742-36.928c-0.167-0.797-0.87-1.368-1.685-1.368h-23.86
				c-0.743,0-1.306,0.672-1.175,1.403l6.448,36.168c0.143,0.802,0.829,1.394,1.643,1.418l25.166,0.745
				C391.802,243.579,392.392,242.874,392.233,242.118z"/>
			<path style="opacity:0.1;fill:#FFFFFF;enable-background:new    ;" d="M392.233,242.118l-7.742-36.928
				c-0.167-0.797-0.87-1.368-1.685-1.368h-23.86c-0.743,0-1.306,0.672-1.175,1.403l6.448,36.168
				c0.143,0.802,0.829,1.394,1.643,1.418l25.166,0.745C391.802,243.579,392.392,242.874,392.233,242.118z"/>
		</g>
		<path style="fill:#EEC1BB;" d="M402.516,230.159l-12.303-7.754c0,0-0.939-2.597-2.08-3.126c-1.141-0.529-8.627-1.515-9.351-0.77
			c-0.724,0.745-0.668,6.607,0.743,7.369c1.411,0.763,8.003,0.686,8.624,0.433l13.789,10.564L402.516,230.159z"/>
		<g>
			<path style="fill:#407BFF;" d="M399.515,188.892c0,0-8.037,11.676-6.87,21.676l10.667,17.667l-7.167-3.667l-3.25,6.125
				c0,0,8.25,12.708,18.75,9.708S399.515,188.892,399.515,188.892z"/>
			<path style="opacity:0.1;fill:#FFFFFF;enable-background:new    ;" d="M399.515,188.892c0,0-8.037,11.676-6.87,21.676
				l10.667,17.667l-7.167-3.667l-3.25,6.125c0,0,8.25,12.708,18.75,9.708S399.515,188.892,399.515,188.892z"/>
		</g>
		<polygon style="fill:#407BFF;" points="396.894,224.234 392.811,231.818 391.894,229.651 395.144,223.484 		"/>
		<g>
			<path style="fill:#FFFFFF;" d="M382.026,203.822c-0.937,0-0.937,24.6-0.937,24.6l-21.501-0.624c0,0-2.418-20.795,0-23.976
				H382.026z"/>
			<path style="opacity:0.1;enable-background:new    ;" d="M382.026,203.822c-0.937,0-0.937,24.6-0.937,24.6l-21.501-0.624
				c0,0-2.418-20.795,0-23.976H382.026z"/>
		</g>
		<path style="fill:#263238;" d="M293.2,184.333l20.328,8.548c0.465,0.196,0.68,0.735,0.476,1.196l0,0
			c-0.199,0.451-0.724,0.659-1.178,0.466l-20.458-8.673c-0.065-0.028-0.127-0.063-0.185-0.105L289.797,184l3.13,0.266
			C293.021,184.274,293.113,184.296,293.2,184.333z"/>
	</g>
</g>
<g id="Character_1">
	<g id="_x3C_Group_x3E__30_">
		<path style="fill:#E4897B;" d="M225.75,226.472l-19.78,1.76l-7.92-4.47c0,0-25.4-14.15-32.01-18.62
			c-2.01-1.37-3.87-4.35-5.48-7.85c-1.36-2.94-2.54-6.24-3.48-9.23c-0.45-1.41-0.85-2.76-1.19-3.96c-0.76-2.67-1.23-4.67-1.36-5.21
			v-0.01c-0.01-0.07-0.02-0.11-0.03-0.13v-0.01l0.05-0.02l6.26-1.99l5.23-1.66c0,0,0.24,1.24,0.65,3.13
			c0.11,0.51,0.23,1.07,0.36,1.67c0.11,0.48,0.22,0.99,0.34,1.52c1.32,5.82,3.35,13.76,4.82,15.06c2.37,2.09,32.17,22.4,33.23,22.93
			c1.05,0.53,10.55,0,10.55,0L225.75,226.472z"/>
		<g>
			<path style="fill:#407BFF;" d="M154.413,150.678c9.093-0.133,14.885,28.062,14.885,28.062l-11.991,6.024
				c0,0-5.407-8.577-5.143-19.421C152.429,154.501,154.413,150.678,154.413,150.678z"/>
			<path style="opacity:0.5;fill:#FFFFFF;" d="M154.413,150.678c9.093-0.133,14.885,28.062,14.885,28.062l-11.991,6.024
				c0,0-5.407-8.577-5.143-19.421C152.429,154.501,154.413,150.678,154.413,150.678z"/>
		</g>
		<polygon style="fill:#407BFF;" points="170.63,179.292 167.39,181.392 163.16,184.132 157.08,188.062 155.99,188.772 
			154.67,184.762 155.89,184.102 156.69,183.662 162.25,180.632 166.69,178.202 168.91,176.992 169.3,176.782 		"/>
		<path style="opacity:0.2;enable-background:new    ;" d="M163.7,188.772c0.07,3.41-1.29,6.25-3.14,8.52
			c-1.36-2.94-2.54-6.24-3.48-9.23l-1.09,0.71l-1.32-4.01l1.22-0.66c-0.76-2.67-1.23-4.67-1.36-5.21v-0.01l0.01-0.03l0.01-0.13
			l1.44-11c0,0,2.64,3.79,4.82,9.01c0.52,1.23,1.01,2.54,1.44,3.9c0.15,0.47,0.29,0.95,0.42,1.44c0.19,0.68,0.35,1.37,0.49,2.06
			C163.47,185.662,163.67,187.222,163.7,188.772z"/>
		<polygon style="fill:#E4897B;" points="153.048,409.362 161.416,410.245 162.986,392.199 154.619,391.315 		"/>
		<polygon style="fill:#E4897B;" points="111.297,408.752 119.404,408.752 120.074,389.969 111.957,389.969 		"/>
		<path style="fill:#263238;" d="M120.528,407.813h-9.85c-0.332,0.002-0.619,0.233-0.691,0.557l-1.599,7.22
			c-0.137,0.646,0.276,1.281,0.923,1.418c0.087,0.018,0.175,0.027,0.263,0.026c3.187-0.052,5.508-0.248,9.51-0.248
			c2.465,0,9.902,0.258,13.305,0.258s3.847-3.362,2.455-3.672c-6.251-1.361-10.954-3.249-12.955-5.044
			C121.519,407.988,121.031,407.804,120.528,407.813z"/>
		<path style="fill:#407BFF;" d="M121.085,408.938c-0.077-0.021-0.134-0.086-0.144-0.165c-0.013-0.076,0.025-0.151,0.093-0.186
			c0.289-0.186,2.909-1.795,3.806-1.331c0.206,0.098,0.336,0.308,0.33,0.536c0.054,0.39-0.098,0.781-0.402,1.031
			c-0.457,0.311-1.007,0.457-1.557,0.413C122.493,409.216,121.78,409.115,121.085,408.938z M121.642,408.669
			c0.946,0.319,1.978,0.268,2.888-0.144c0.194-0.174,0.291-0.432,0.258-0.691c-0.01-0.155-0.072-0.227-0.124-0.227
			c-0.076-0.041-0.162-0.059-0.248-0.052C123.429,407.746,122.487,408.124,121.642,408.669z"/>
		<path style="fill:#407BFF;" d="M121.033,408.979c-0.059-0.039-0.094-0.105-0.093-0.175c0.01-0.113,0.206-2.445,1.145-3.208
			c0.223-0.196,0.52-0.286,0.815-0.247c0.301-0.001,0.56,0.211,0.619,0.505c0.165,0.856-1.454,2.64-2.29,3.094h-0.093
			C121.106,408.969,121.07,408.979,121.033,408.979z M122.333,405.823c-0.57,0.728-0.905,1.614-0.959,2.537
			c0.835-0.629,1.867-1.98,1.764-2.506c-0.01-0.052-0.031-0.196-0.279-0.196h-0.093
			C122.607,405.658,122.453,405.717,122.333,405.823z"/>
		<path style="fill:#263238;" d="M162.301,407.555h-9.85c-0.332,0.002-0.619,0.233-0.691,0.557l-1.599,7.22
			c-0.137,0.646,0.276,1.281,0.923,1.418c0.087,0.018,0.175,0.027,0.263,0.026c3.187-0.052,5.508-0.247,9.51-0.247
			c2.465,0,9.902,0.258,13.305,0.258s3.847-3.362,2.455-3.672c-6.251-1.362-10.954-3.249-12.955-5.044
			C163.292,407.731,162.804,407.546,162.301,407.555z"/>
		<path style="fill:#407BFF;" d="M162.858,408.68c-0.077-0.02-0.134-0.086-0.144-0.165c-0.013-0.076,0.025-0.151,0.093-0.186
			c0.289-0.186,2.909-1.795,3.806-1.33c0.206,0.098,0.336,0.308,0.33,0.536c0.054,0.39-0.098,0.781-0.402,1.031
			c-0.457,0.311-1.006,0.457-1.557,0.413C164.266,408.958,163.553,408.858,162.858,408.68z M163.415,408.411
			c0.946,0.32,1.978,0.268,2.888-0.144c0.194-0.174,0.291-0.432,0.258-0.691c-0.01-0.155-0.072-0.227-0.124-0.227
			c-0.076-0.041-0.162-0.059-0.248-0.052C165.202,407.488,164.26,407.866,163.415,408.411z"/>
		<path style="fill:#407BFF;" d="M162.806,408.721c-0.059-0.039-0.094-0.105-0.093-0.175c0.01-0.113,0.206-2.445,1.145-3.208
			c0.223-0.196,0.52-0.286,0.815-0.248c0.301-0.001,0.56,0.211,0.619,0.505c0.165,0.856-1.454,2.641-2.29,3.094h-0.093
			C162.879,408.711,162.843,408.722,162.806,408.721z M164.106,405.565c-0.57,0.729-0.905,1.614-0.959,2.537
			c0.835-0.629,1.867-1.98,1.764-2.506c-0.01-0.052-0.031-0.196-0.279-0.196h-0.093C164.38,405.4,164.226,405.459,164.106,405.565z"
			/>
		<polygon style="opacity:0.2;enable-background:new    ;" points="154.619,391.315 162.986,392.199 162.169,401.507 
			153.802,400.623 		"/>
		<polygon style="opacity:0.2;enable-background:new    ;" points="111.957,389.98 120.074,389.98 119.724,399.665 111.606,399.665 
					"/>
		<path style="fill:#407BFF;" d="M115.304,225.222h43.035c4.092,22.344,16.9,101.414,7.711,171.865l-14.569-1.807
			c0,0,1.349-93.527-11.515-128.104c-1.479,18.504-3.236,38.194-4.762,48.67c-3.744,25.786-11.758,82.139-11.758,82.139h-14.832
			c0,0,3.032-53.94,4.435-79.283C114.583,291.192,115.245,230.872,115.304,225.222z"/>
		<path style="opacity:0.2;enable-background:new    ;" d="M139.971,267.181c1.898,5.095,3.476,11.459,4.807,18.617
			c1.203-16.466-3.61-33.931-3.61-33.931L139.971,267.181z"/>
		<g>
			<polygon style="fill:#407BFF;" points="167.717,400.482 149.685,397.799 150.236,392.805 168.994,395.268 			"/>
			<polygon style="opacity:0.6;fill:#FFFFFF;enable-background:new    ;" points="167.717,400.482 149.685,397.799 150.236,392.805 
				168.994,395.268 			"/>
		</g>
		<g>
			<polygon style="fill:#407BFF;" points="125.231,398.107 107.738,398.107 107.738,392.878 125.892,392.538 			"/>
			<polygon style="opacity:0.6;fill:#FFFFFF;enable-background:new    ;" points="125.231,398.107 107.738,398.107 107.738,392.878 
				125.892,392.538 			"/>
		</g>
		<polygon style="fill:#263238;" points="115.217,232.698 115.184,226.468 159.036,223.762 159.346,229.798 		"/>
		<rect x="124.341" y="224.887" style="fill:#407BFF;" width="1.978" height="9.13"/>
		
			<rect x="155" y="221.903" transform="matrix(0.9973 -0.0728 0.0728 0.9973 -16.0717 11.956)" style="fill:#407BFF;" width="1.978" height="9.13"/>
		<g>
			<path style="fill:#407BFF;" d="M159.04,223.762l-43.86,3.27c0.05-3.84-0.1-8.12-0.39-12.64c-0.54-8.35-1.57-17.49-2.72-26.06
				c-2.44-18.21-5.43-33.84-5.43-33.84c20.4-5.15,47.77-3.81,47.77-3.81C161.52,177.292,159.04,223.762,159.04,223.762z"/>
			<path style="opacity:0.6;fill:#FFFFFF;" d="M159.04,223.762l-43.86,3.27c0.05-3.84-0.1-8.12-0.39-12.64
				c-0.54-8.35-1.57-17.49-2.72-26.06c-2.44-18.21-5.43-33.84-5.43-33.84c20.4-5.15,47.77-3.81,47.77-3.81
				C161.52,177.292,159.04,223.762,159.04,223.762z"/>
		</g>
		<path style="fill:#E4897B;" d="M122.21,151.733c3.95,3.589,13.629,2.262,13.629,2.262s6.041-1.654,4.772-3.541
			c-3.558-0.588-5.281-2.248-5.993-4.373c-0.412-1.238-0.474-2.63-0.361-4.064c0.052-0.753,0.165-1.516,0.299-2.269l-11.964-8.86
			C124.159,136.736,126.077,147.494,122.21,151.733z"/>
		<path style="opacity:0.2;enable-background:new    ;" d="M125.355,136.519c0.474,7.179,6.375,9.159,9.262,9.561
			c-0.412-1.238-0.474-2.63-0.361-4.064L125.355,136.519z"/>
		<g>
			<path style="fill:#263238;" d="M146.001,113.828c2.905,2.764,1.699,11.174-4.232,15.471c-5.931,4.298-5.931-16.503-5.931-16.503
				S144.15,112.068,146.001,113.828z"/>
			<path style="fill:#E4897B;" d="M124.551,138.18c2.877,4.136,7.571,5.219,11.645,3.93c2.62-0.825,4.982-2.641,6.446-5.25
				c0.196-0.34,0.371-0.701,0.536-1.073c2.919-6.828,3.847-18.772-3.373-23.248c-5.126-3.228-11.913-1.691-15.141,3.445
				c-0.928,1.454-1.485,3.115-1.65,4.837C122.127,128.804,121.229,133.456,124.551,138.18z"/>
			<path style="fill:#263238;" d="M134.652,125.087c-0.154,0.631,0.137,1.222,0.566,1.295c0.428,0.072,0.851-0.398,0.964-1.039
				c0.114-0.641-0.148-1.225-0.566-1.295C135.198,123.978,134.768,124.435,134.652,125.087z"/>
			<path style="fill:#263238;" d="M141.939,126.331c-0.154,0.631,0.148,1.225,0.566,1.295c0.418,0.07,0.851-0.398,0.964-1.039
				c0.114-0.641-0.147-1.225-0.566-1.295C142.485,125.222,142.045,125.72,141.939,126.331z"/>
			<path style="fill:#DE5753;" d="M139.57,126.253c0.431,2.102,1.15,4.135,2.138,6.041c-1.006,0.488-2.176,0.506-3.197,0.049
				L139.57,126.253z"/>
			<path style="fill:#263238;" d="M132.794,122.341c0.137,0.044,0.286,0.011,0.392-0.085c0.696-0.685,1.674-1.002,2.639-0.854
				c0.205,0.05,0.411-0.075,0.462-0.279c0.05-0.205-0.075-0.411-0.279-0.462c-0.001,0-0.001,0-0.002,0
				c-1.215-0.218-2.461,0.167-3.341,1.033c-0.158,0.14-0.173,0.381-0.033,0.539c0.002,0.002,0.004,0.005,0.006,0.007
				C132.684,122.281,132.737,122.315,132.794,122.341z"/>
			<path style="fill:#263238;" d="M136.893,135.502L136.893,135.502c-1.92-0.036-3.703-1.006-4.775-2.599
				c-0.055-0.097-0.023-0.221,0.072-0.278c0.091-0.058,0.212-0.032,0.271,0.059c0.003,0.004,0.005,0.009,0.008,0.013
				c1.022,1.453,2.67,2.34,4.445,2.393c0.108,0,0.196,0.087,0.197,0.195c0,0.007,0,0.015-0.001,0.022
				c0.001,0.108-0.087,0.196-0.195,0.197C136.908,135.503,136.901,135.503,136.893,135.502z"/>
			<path style="fill:#263238;" d="M145.499,124.353c0.066,0.041,0.143,0.059,0.22,0.054c0.203-0.056,0.323-0.266,0.267-0.469
				c-0.001-0.003-0.001-0.005-0.002-0.008c-0.319-1.197-1.2-2.164-2.362-2.592c-0.202-0.061-0.415,0.053-0.476,0.255l0,0.001
				c-0.055,0.202,0.057,0.411,0.255,0.477l0,0c0.908,0.365,1.589,1.137,1.839,2.083
				C145.293,124.254,145.388,124.327,145.499,124.353z"/>
			<path style="fill:#263238;" d="M130.509,111.937v3.566c-1.227,0.473-2.081,1.689-1.719,3.138
				c0.774,3.094-1.463,7.474-3.954,9.025c0,0,0.086-1.289-1.031-1.118c-1.118,0.172-1.633,6.876,0.086,10.314
				c0,0-2.836-3.266-3.782-10.486c-0.874-6.677-0.423-12.098,1.213-14.44H130.509z"/>
			<path style="fill:#E4897B;" d="M118.447,126.722c0.572,1.941,1.891,3.576,3.667,4.546c2.36,1.268,4.125-0.705,3.965-3.241
				c-0.164-2.252-1.564-5.696-4.179-5.893C119.285,121.936,117.775,124.33,118.447,126.722z"/>
			<path style="fill:#263238;" d="M119.745,117.966c0,0-2.467-5.927,3.965-10.278c6.432-4.352,21.824,0.718,22.897,4.249
				C147.681,115.468,136.117,121.915,119.745,117.966z"/>
		</g>
		<polygon style="fill:#407BFF;" points="123.721,148.039 133.513,153.398 134.849,146.081 141.707,150.543 141.707,159.886 
			134.446,155.556 129.347,163.204 119.28,152.143 		"/>
		<path style="fill:#FFFFFF;" d="M146.355,231.557l-7.699,0.426c-0.641,0.035-1.189-0.456-1.225-1.097l-0.288-5.208
			c-0.035-0.641,0.455-1.189,1.097-1.225l7.699-0.426c0.641-0.036,1.19,0.455,1.225,1.096l0.288,5.208
			C147.487,230.973,146.996,231.522,146.355,231.557z"/>
		<polygon style="opacity:0.5;fill:#FFFFFF;" points="123.721,148.039 133.513,153.398 134.849,146.081 141.707,150.543 
			141.707,159.886 134.446,155.556 129.347,163.204 119.28,152.143 		"/>
		<path style="opacity:0.2;enable-background:new    ;" d="M130.509,212.457c-2.91,4.38-12.221,4.352-15.719,1.935
			c-0.54-8.35-1.57-17.49-2.72-26.06L130.509,212.457z"/>
		<path style="fill:#E4897B;" d="M115.184,178.74c0,0,2.069,13.475,4.096,16.112c2.027,2.637,43.961,25.582,43.961,25.582
			l14.505-1.055l6.675,7.648c0,0-19.334,3.002-21.444,2.424c-2.11-0.578-3.724-1.447-3.724-1.447s-44.012-17.329-47.704-21.285
			c-3.692-3.956-7.912-24.288-7.912-24.288L115.184,178.74z"/>
		<g>
			<path style="fill:#407BFF;" d="M106.643,154.494c7.678-1.602,11.645,30.271,11.645,30.271l-15.705,4.011
				C102.582,188.776,97.193,156.465,106.643,154.494z"/>
			<path style="opacity:0.5;fill:#FFFFFF;" d="M106.643,154.494c7.678-1.602,11.645,30.271,11.645,30.271l-15.705,4.011
				C102.582,188.776,97.193,156.465,106.643,154.494z"/>
		</g>
		<polygon style="fill:#407BFF;" points="101.659,187.995 119.28,183.776 119.28,186.809 102.451,191.688 		"/>
	</g>
</g>
<g id="Boxes">
	<g>
		<path style="fill:none;stroke:#263238;stroke-width:6;stroke-linecap:round;stroke-linejoin:round;stroke-miterlimit:10;" d="
			M162.044,387.034V249.921c0-5.934-1.82-11.724-5.214-16.591l-4.786-6.863h85.099l4.786,6.863
			c3.394,4.867,5.214,10.658,5.214,16.591v135.776"/>
		<g>
			<g>
				<circle style="fill:#263238;" cx="342.853" cy="408.235" r="8.809"/>
				<path style="opacity:0.4;fill:#FFFFFF;enable-background:new    ;" d="M347.258,408.235c0-2.433-1.972-4.405-4.405-4.405
					c-2.433,0-4.405,1.972-4.405,4.405c0,2.433,1.972,4.405,4.405,4.405C345.286,412.64,347.258,410.668,347.258,408.235z"/>
			</g>
			<path style="fill:#263238;" d="M341.792,410.202L341.792,410.202c-1.407,0-2.665-0.879-3.148-2.201l-5.196-14.217h11.694v13.066
				C345.143,408.702,343.642,410.202,341.792,410.202z"/>
			<path style="opacity:0.2;fill:#FFFFFF;enable-background:new    ;" d="M341.792,410.202L341.792,410.202
				c-1.407,0-2.665-0.879-3.148-2.201l-5.196-14.217h11.694v13.066C345.143,408.702,343.642,410.202,341.792,410.202z"/>
		</g>
		<g>
			<g>
				<circle style="fill:#263238;" cx="244.853" cy="408.235" r="8.809"/>
				<path style="opacity:0.4;fill:#FFFFFF;enable-background:new    ;" d="M249.258,408.235c0-2.433-1.972-4.405-4.405-4.405
					c-2.433,0-4.405,1.972-4.405,4.405c0,2.433,1.972,4.405,4.405,4.405C247.286,412.64,249.258,410.668,249.258,408.235z"/>
			</g>
			<path style="fill:#263238;" d="M243.792,410.202L243.792,410.202c-1.407,0-2.664-0.879-3.147-2.201l-5.196-14.217h11.694v13.066
				C247.143,408.702,245.643,410.202,243.792,410.202z"/>
			<path style="opacity:0.2;fill:#FFFFFF;enable-background:new    ;" d="M243.792,410.202L243.792,410.202
				c-1.407,0-2.664-0.879-3.147-2.201l-5.196-14.217h11.694v13.066C247.143,408.702,245.643,410.202,243.792,410.202z"/>
		</g>
		<path style="fill:#263238;" d="M358,383.526v8.32c0,1.55-1.26,2.81-2.81,2.81H158.26c-1.55,0-2.81-1.26-2.81-2.81v-8.32H358z"/>
		<path style="opacity:0.4;fill:#FFFFFF;enable-background:new    ;" d="M358,383.526v8.32c0,1.55-1.26,2.81-2.81,2.81H158.26
			c-1.55,0-2.81-1.26-2.81-2.81v-8.32H358z"/>
		<path style="opacity:0.2;fill:#FFFFFF;enable-background:new    ;" d="M288,383.526v8.32c0,1.55-1.26,2.81-2.81,2.81H158.26
			c-1.55,0-2.81-1.26-2.81-2.81v-8.32H288z"/>
		<g>
			<g>
				<circle style="fill:#263238;" cx="271.853" cy="408.235" r="8.809"/>
				<path style="opacity:0.6;fill:#FFFFFF;enable-background:new    ;" d="M276.258,408.235c0-2.433-1.972-4.405-4.405-4.405
					c-2.433,0-4.405,1.972-4.405,4.405c0,2.433,1.972,4.405,4.405,4.405C274.286,412.64,276.258,410.668,276.258,408.235z"/>
			</g>
			<path style="fill:#263238;" d="M270.792,410.202L270.792,410.202c-1.407,0-2.665-0.879-3.148-2.201l-5.196-14.217h11.694v13.066
				C274.143,408.702,272.642,410.202,270.792,410.202z"/>
			<path style="opacity:0.4;fill:#FFFFFF;enable-background:new    ;" d="M270.792,410.202L270.792,410.202
				c-1.407,0-2.665-0.879-3.148-2.201l-5.196-14.217h11.694v13.066C274.143,408.702,272.642,410.202,270.792,410.202z"/>
		</g>
		<g>
			<g>
				<circle style="fill:#263238;" cx="173.853" cy="408.235" r="8.809"/>
				<path style="opacity:0.6;fill:#FFFFFF;enable-background:new    ;" d="M178.258,408.235c0-2.433-1.972-4.405-4.405-4.405
					c-2.433,0-4.405,1.972-4.405,4.405c0,2.433,1.972,4.405,4.405,4.405C176.286,412.64,178.258,410.668,178.258,408.235z"/>
			</g>
			<path style="fill:#263238;" d="M172.792,410.202L172.792,410.202c-1.407,0-2.664-0.879-3.147-2.201l-5.196-14.217h11.694v13.066
				C176.143,408.702,174.643,410.202,172.792,410.202z"/>
			<path style="opacity:0.4;fill:#FFFFFF;enable-background:new    ;" d="M172.792,410.202L172.792,410.202
				c-1.407,0-2.664-0.879-3.147-2.201l-5.196-14.217h11.694v13.066C176.143,408.702,174.643,410.202,172.792,410.202z"/>
		</g>
		<g>
			<rect x="179.839" y="318.976" style="fill:#407BFF;" width="93.249" height="64.55"/>
			<rect x="179.839" y="318.976" style="opacity:0.4;fill:#FFFFFF;enable-background:new    ;" width="93.249" height="64.55"/>
			<rect x="179.839" y="318.976" style="opacity:0.2;fill:#FFFFFF;enable-background:new    ;" width="43.271" height="64.55"/>
			<path style="opacity:0.2;enable-background:new    ;" d="M219.022,379.108h-5.407c-0.51,0-0.923-0.413-0.923-0.923V370.8
				c0-0.51,0.413-0.923,0.923-0.923h5.407c0.51,0,0.923,0.413,0.923,0.923v7.385C219.945,378.695,219.532,379.108,219.022,379.108z"
				/>
			<path style="opacity:0.2;enable-background:new    ;" d="M209.264,379.108h-5.407c-0.51,0-0.923-0.413-0.923-0.923V370.8
				c0-0.51,0.413-0.923,0.923-0.923h5.407c0.51,0,0.923,0.413,0.923,0.923v7.385C210.187,378.695,209.773,379.108,209.264,379.108z"
				/>
			<rect x="247.769" y="318.976" style="opacity:0.4;enable-background:new    ;" width="5.275" height="6.725"/>
			<rect x="231.147" y="346.536" style="opacity:0.2;enable-background:new    ;" width="36.301" height="8.44"/>
			<rect x="182.663" y="322.339" style="opacity:0.2;enable-background:new    ;" width="12.41" height="12.41"/>
		</g>
		<g>
			<rect x="189.362" y="254.426" style="fill:#407BFF;" width="93.249" height="64.55"/>
			<rect x="189.362" y="254.426" style="opacity:0.4;enable-background:new    ;" width="93.249" height="64.55"/>
			<rect x="189.362" y="254.426" style="opacity:0.2;fill:#FFFFFF;enable-background:new    ;" width="43.271" height="64.55"/>
			<path style="opacity:0.2;enable-background:new    ;" d="M228.545,314.557h-5.407c-0.51,0-0.923-0.413-0.923-0.923v-7.385
				c0-0.51,0.413-0.923,0.923-0.923h5.407c0.51,0,0.923,0.413,0.923,0.923v7.385C229.468,314.144,229.055,314.557,228.545,314.557z"
				/>
			<path style="opacity:0.2;enable-background:new    ;" d="M218.787,314.557h-5.407c-0.51,0-0.923-0.413-0.923-0.923v-7.385
				c0-0.51,0.413-0.923,0.923-0.923h5.407c0.51,0,0.923,0.413,0.923,0.923v7.385C219.71,314.144,219.297,314.557,218.787,314.557z"
				/>
			<rect x="257.292" y="254.426" style="opacity:0.4;enable-background:new    ;" width="5.275" height="6.725"/>
			<rect x="240.67" y="281.986" style="opacity:0.2;enable-background:new    ;" width="36.301" height="8.44"/>
			<rect x="192.186" y="257.788" style="opacity:0.2;enable-background:new    ;" width="12.41" height="12.41"/>
		</g>
		<g>
			<rect x="246.445" y="254.426" style="fill:#407BFF;" width="93.249" height="64.55"/>
			<rect x="246.445" y="254.426" style="opacity:0.4;fill:#FFFFFF;enable-background:new    ;" width="93.249" height="64.55"/>
			<rect x="246.445" y="254.426" style="opacity:0.2;fill:#FFFFFF;enable-background:new    ;" width="43.271" height="64.55"/>
			<path style="opacity:0.2;enable-background:new    ;" d="M285.627,314.557h-5.407c-0.51,0-0.923-0.413-0.923-0.923v-7.385
				c0-0.51,0.413-0.923,0.923-0.923h5.407c0.51,0,0.923,0.413,0.923,0.923v7.385C286.55,314.144,286.137,314.557,285.627,314.557z"
				/>
			<path style="opacity:0.2;enable-background:new    ;" d="M275.869,314.557h-5.407c-0.51,0-0.923-0.413-0.923-0.923v-7.385
				c0-0.51,0.413-0.923,0.923-0.923h5.407c0.51,0,0.923,0.413,0.923,0.923v7.385C276.792,314.144,276.379,314.557,275.869,314.557z"
				/>
			<rect x="314.375" y="254.426" style="opacity:0.4;enable-background:new    ;" width="5.275" height="6.725"/>
			<rect x="297.752" y="281.986" style="opacity:0.2;enable-background:new    ;" width="36.301" height="8.44"/>
			<rect x="249.268" y="257.788" style="opacity:0.2;enable-background:new    ;" width="12.41" height="12.41"/>
		</g>
		<g>
			<rect x="214.191" y="189.875" style="fill:#407BFF;" width="93.249" height="64.55"/>
			<rect x="214.191" y="189.875" style="opacity:0.2;fill:#FFFFFF;enable-background:new    ;" width="43.271" height="64.55"/>
			<path style="opacity:0.2;enable-background:new    ;" d="M253.374,250.007h-5.407c-0.51,0-0.923-0.413-0.923-0.923v-7.385
				c0-0.51,0.413-0.923,0.923-0.923h5.407c0.51,0,0.923,0.413,0.923,0.923v7.385C254.297,249.594,253.883,250.007,253.374,250.007z"
				/>
			<path style="opacity:0.2;enable-background:new    ;" d="M243.615,250.007h-5.407c-0.51,0-0.923-0.413-0.923-0.923v-7.385
				c0-0.51,0.413-0.923,0.923-0.923h5.407c0.51,0,0.923,0.413,0.923,0.923v7.385C244.538,249.594,244.125,250.007,243.615,250.007z"
				/>
			<rect x="282.121" y="189.875" style="opacity:0.4;enable-background:new    ;" width="5.275" height="6.725"/>
			<rect x="265.499" y="217.435" style="opacity:0.2;enable-background:new    ;" width="36.302" height="8.44"/>
			<rect x="217.014" y="193.238" style="opacity:0.2;enable-background:new    ;" width="12.41" height="12.41"/>
		</g>
		<g>
			<rect x="239.18" y="318.976" style="fill:#263238;" width="93.249" height="64.55"/>
			<rect x="239.18" y="318.976" style="opacity:0.2;fill:#FFFFFF;enable-background:new    ;" width="93.249" height="64.55"/>
			<rect x="239.18" y="318.976" style="opacity:0.2;fill:#FFFFFF;enable-background:new    ;" width="43.271" height="64.55"/>
			<path style="opacity:0.2;enable-background:new    ;" d="M278.363,379.108h-5.407c-0.51,0-0.923-0.413-0.923-0.923V370.8
				c0-0.51,0.413-0.923,0.923-0.923h5.407c0.51,0,0.923,0.413,0.923,0.923v7.385C279.286,378.695,278.872,379.108,278.363,379.108z"
				/>
			<path style="opacity:0.2;enable-background:new    ;" d="M268.604,379.108h-5.407c-0.51,0-0.923-0.413-0.923-0.923V370.8
				c0-0.51,0.413-0.923,0.923-0.923h5.407c0.51,0,0.923,0.413,0.923,0.923v7.385C269.527,378.695,269.114,379.108,268.604,379.108z"
				/>
			<rect x="307.11" y="318.976" style="opacity:0.4;enable-background:new    ;" width="5.275" height="6.725"/>
			<rect x="290.488" y="346.536" style="opacity:0.2;enable-background:new    ;" width="36.301" height="8.44"/>
			<rect x="242.003" y="322.339" style="opacity:0.2;enable-background:new    ;" width="12.41" height="12.41"/>
		</g>
	</g>
</g>
</svg>
